<?xml version="1.0" encoding="UTF-8"?>
<svg width="86px" height="78px" viewBox="0 0 86 78" version="1.1" xmlns="http://www.w3.org/2000/svg" xmlns:xlink="http://www.w3.org/1999/xlink">
    <!-- Generator: Sketch 64 (93537) - https://sketch.com -->
    <title>Quality Service</title>
    <desc>Created with Sketch.</desc>
    <g id="Desktop" stroke="none" stroke-width="1" fill="none" fill-rule="evenodd" stroke-linecap="round" stroke-linejoin="round">
        <g id="Homepage" transform="translate(-1090.000000, -2513.000000)" stroke="#002091">
            <g id="Why-Us" transform="translate(120.000000, 2380.000000)">
                <g id="Group" transform="translate(145.000000, 134.000000)">
                    <g id="Quality-Service" transform="translate(826.000000, 0.000000)">
                        <polyline id="Stroke-1" fill-opacity="0.111778846" fill="#002091" points="56.9032258 68 0 68 0 0 84 0 84 68 70.4516129 68"></polyline>
                        <path d="M79,47.3333333 L79,14 C74.519963,14 70.8888889,10.4186667 70.8888889,6 L14.1111111,6 C14.1111111,10.4186667 10.480037,14 6,14 L6,54 C10.480037,54 14.1111111,57.5813333 14.1111111,62 L57.3703704,62" id="Stroke-3"></path>
                        <polyline id="Stroke-5" fill="#E2E6F2" points="70 60 70 76 63.5 70.2877544 57 76 57 60.0028561"></polyline>
                        <path d="M79,47 C79,38.7145455 72.2854545,32 64,32 C55.7145455,32 49,38.7145455 49,47 C49,55.2854545 55.7145455,62 64,62 C72.2854545,62 79,55.2854545 79,47 Z" id="Stroke-7" fill="#FFFFFF"></path>
                        <path d="M74,47 C74,41.4771429 69.5228571,37 64,37 C58.4771429,37 54,41.4771429 54,47 C54,52.5228571 58.4771429,57 64,57 C69.5228571,57 74,52.5228571 74,47 Z" id="Stroke-9" fill="#002091"></path>
                        <line x1="28" y1="14.5" x2="58" y2="14.5" id="Stroke-11"></line>
                        <line x1="28" y1="24.5" x2="58" y2="24.5" id="Stroke-13"></line>
                        <line x1="20" y1="19.5" x2="66" y2="19.5" id="Stroke-15"></line>
                        <line x1="20" y1="51.5" x2="25" y2="51.5" id="Stroke-17"></line>
                        <line x1="19" y1="56.5" x2="30" y2="56.5" id="Stroke-19"></line>
                    </g>
                </g>
            </g>
        </g>
    </g>
</svg>