<?xml version="1.0" encoding="UTF-8"?>
<svg width="49px" height="42px" viewBox="0 0 49 42" version="1.1" xmlns="http://www.w3.org/2000/svg" xmlns:xlink="http://www.w3.org/1999/xlink">
    <!-- Generator: Sketch 64 (93537) - https://sketch.com -->
    <title>quote</title>
    <desc>Created with Sketch.</desc>
    <defs>
        <path d="M15.84,12.0736 C10.7392,12.0736 6.6016,16.3296 6.6016,21.5808 C6.6016,26.832 10.7392,31.0848 15.84,31.0848 C25.0784,31.0848 18.9184,49.4624 6.6016,49.4624 L6.6016,53.8976 C28.5824,53.8976 37.1968,12.0736 15.84,12.0736 L15.84,12.0736 Z M42.4544,12.0736 C37.3504,12.0736 33.216,16.3296 33.216,21.5808 C33.216,26.832 37.3504,31.0848 42.4544,31.0848 C51.6928,31.0848 45.5328,49.4624 33.216,49.4624 L33.216,53.8976 C55.1968,53.8976 63.8112,12.0736 42.4544,12.0736 L42.4544,12.0736 Z" id="path-1"></path>
    </defs>
    <g id="Desktop" stroke="none" stroke-width="1" fill="none" fill-rule="evenodd">
        <g id="Homepage" transform="translate(-694.000000, -2863.000000)">
            <g id="Testimonials" transform="translate(120.000000, 2851.000000)">
                <g id="quote" transform="translate(568.000000, 0.000000)">
                    <mask id="mask-2" fill="white">
                        <use xlink:href="#path-1"></use>
                    </mask>
                    <use id="Mask" fill="#000000" fill-rule="evenodd" xlink:href="#path-1"></use>
                    <g id="Colors/Blue" mask="url(#mask-2)" fill="#002091" fill-rule="evenodd">
                        <rect id="Rectangle-3" x="0" y="0" width="64" height="64"></rect>
                    </g>
                </g>
            </g>
        </g>
    </g>
</svg>