<?xml version="1.0" encoding="UTF-8"?>
<svg width="89px" height="80px" viewBox="0 0 89 80" version="1.1" xmlns="http://www.w3.org/2000/svg" xmlns:xlink="http://www.w3.org/1999/xlink">
    <!-- Generator: Sketch 64 (93537) - https://sketch.com -->
    <title>Boat and Watercraft Insurance</title>
    <desc>Created with Sketch.</desc>
    <defs>
        <polygon id="path-1" points="0.0193011271 0.1752 22.7619171 0.1752 22.7619171 6 0.0193011271 6"></polygon>
        <polygon id="path-3" points="0 0.1752 69.8144717 0.1752 69.8144717 6 0 6"></polygon>
    </defs>
    <g id="Desktop" stroke="none" stroke-width="1" fill="none" fill-rule="evenodd">
        <g id="Personal-Insurance" transform="translate(-525.000000, -1364.000000)">
            <g id="Group-20" transform="translate(120.000000, 1364.000000)">
                <g id="Boat-and-Watercraft-Insurance" transform="translate(405.000000, 0.000000)">
                    <path d="M20.2182244,76 C19.8348172,76 19.4677787,75.8542125 19.190139,75.5885484 C14.8303769,71.3728861 11.8487404,66.0168348 10.5729198,60.0982373 L9.03268035,52.9455971 C8.89071265,52.2834659 9.22092134,51.6163399 9.83600979,51.3247649 L43.8912602,35.1442266 C44.0895743,35.0493242 44.3077198,35 44.5261801,35 C44.8069676,35 45.0779969,35.0786691 45.3093633,35.2263296 C45.7425065,35.4935547 46,35.9555792 46,36.4603723 L46,74.5377546 C46,75.3444246 45.3392678,75.9984391 44.5261801,75.9984391 C43.7159254,75.9984391 43.0551932,75.3444246 43.0551932,74.5377546 L43.0551932,38.5126356 L12.0341483,53.5175087 L13.4553993,59.4901131 C14.605621,64.8364868 17.2995447,69.6799406 21.2494576,73.4957018 C21.8277163,74.0594967 21.8409373,74.985419 21.2758995,75.5588914 C20.9982598,75.8442228 20.621463,76 20.2182244,76" id="Fill-1" fill="#002091"></path>
                    <path d="M68.7808211,76 C68.3806963,76 68.0073304,75.8442287 67.7233708,75.5592203 C67.1579702,74.9838968 67.1711922,74.0580097 67.7498149,73.4942363 C71.6997491,69.6801812 74.3939021,64.837224 75.5476846,59.4891808 L76.8730391,53.3316887 L45.7039121,38.6632785 L45.9453722,74.0954698 C45.9453722,74.900236 45.284269,75.5542257 44.471112,75.5542257 C43.6611032,75.5542257 43,74.900236 43,74.0954698 L43,36.4603167 C43,35.9574159 43.2546821,35.4950967 43.6875473,35.224448 C43.9223964,35.0786661 44.1931339,35 44.471112,35 C44.6924242,35 44.9074401,35.0477615 45.109234,35.1442211 L79.1639191,51.3241434 C79.7790599,51.6157073 80.1092966,52.282808 79.9673169,52.944914 L78.4269464,60.0972819 C77.1544802,66.0140932 74.1725899,71.3683798 69.808994,75.5854424 C69.5281825,75.8542181 69.1645758,76 68.7808211,76" id="Fill-3" fill="#002091"></path>
                    <path d="M18.4706349,49 C17.6596507,49 17,48.3326391 17,47.5117373 L17,27.9289145 C17,25.2110512 19.179265,23 21.8596258,23 L65.1438278,23 C67.821049,23 70,25.2110512 70,27.9289145 L70,47.4413379 C70,48.2641509 69.3406632,48.9315119 68.5328187,48.9315119 C67.7218345,48.9315119 67.0628117,48.2641509 67.0628117,47.4413379 L67.0628117,27.9289145 C67.0628117,26.8534918 66.2019063,25.9784367 65.1438278,25.9784367 L21.8596258,25.9784367 C20.8015473,25.9784367 19.9378162,26.8534918 19.9378162,27.9289145 L19.9378162,47.5117373 C19.9378162,48.3326391 19.2781655,49 18.4706349,49" id="Fill-5" fill="#002091"></path>
                    <path d="M41.6959822,12.8390851 C40.6728064,12.8390851 39.837567,13.6728064 39.837567,14.6978039 L39.837567,22.3236515 L49.3218298,22.1609149 L49.1593968,14.6978039 C49.1593968,13.6728064 48.3241575,12.8390851 47.3006781,12.8390851 L41.6959822,12.8390851 Z M38.4187835,25 C37.6375873,25 37,24.3639308 37,23.5812165 L37,14.6978039 C37,12.1073778 39.1073778,10 41.6959822,10 L47.3006781,10 C49.8926222,10 52,12.1073778 52,14.6978039 L52,23.5812165 C52,24.3639308 51.3624127,25 50.5781803,25 L38.4187835,25 Z" id="Fill-7" fill="#002091"></path>
                    <path d="M44.4983968,13 C43.6733647,13 43,12.3617894 43,11.57644 L43,1.42356001 C43,0.63821062 43.6733647,0 44.4983968,0 C45.3266353,0 46,0.63821062 46,1.42356001 L46,11.57644 C46,12.3617894 45.3266353,13 44.4983968,13" id="Fill-9" fill="#002091"></path>
                    <g id="Group-13" transform="translate(66.000000, 74.000000)">
                        <mask id="mask-2" fill="white">
                            <use xlink:href="#path-1"></use>
                        </mask>
                        <g id="Clip-12"></g>
                        <path d="M10.0485029,6.00005714 C6.80517429,6.00005714 5.11796,5.05034286 3.63117429,4.21205714 C2.80646,3.74548571 2.09937429,3.34491429 1.12647429,3.0972 C0.72956,2.99834286 0.404931429,2.77034286 0.208445714,2.45691429 C0.01196,2.1432 -0.0330542857,1.7832 0.08096,1.43977143 C0.270545714,0.874342857 0.877745714,0.478342857 1.55394571,0.478342857 C1.70246,0.478342857 1.84736,0.496342857 1.98536,0.532342857 C3.37916,0.884914286 4.38984571,1.4532 5.28027429,1.95434286 C6.59456,2.69691429 7.71268857,3.32834286 10.0485029,3.32834286 C12.3876029,3.32834286 13.5054029,2.69834286 14.7957029,1.96948571 C16.2930029,1.12491429 17.9805457,0.1752 21.2235457,0.1752 C22.0722457,0.1752 22.7619171,0.773771429 22.7619171,1.51034286 C22.7619171,2.24834286 22.0722457,2.84691429 21.2235457,2.84691429 C18.8808314,2.84691429 17.7663171,3.47834286 16.4760171,4.20891429 C14.9823314,5.05034286 13.2951171,6.00005714 10.0485029,6.00005714" id="Fill-11" fill="#002091" mask="url(#mask-2)"></path>
                    </g>
                    <g id="Group-16" transform="translate(0.000000, 74.000000)">
                        <mask id="mask-4" fill="white">
                            <use xlink:href="#path-3"></use>
                        </mask>
                        <g id="Clip-15"></g>
                        <path d="M55.0546847,6.00005714 C51.9355856,6.00005714 50.3167568,5.04891429 48.8896396,4.20891429 C47.6482432,3.47834286 46.5752252,2.84691429 44.3336486,2.84691429 C42.0889189,2.84691429 41.0193694,3.47834286 39.7814414,4.20891429 C38.354009,5.04891429 36.7348649,6.00005714 33.6195495,6.00005714 C30.5039189,6.00005714 28.8847748,5.04891429 27.457973,4.20891429 C26.2194144,3.47834286 25.1498649,2.84691429 22.9051351,2.84691429 C20.6604054,2.84691429 19.5908559,3.47834286 18.3529279,4.20891429 C16.9157207,5.05205714 15.300045,6.00005714 12.191036,6.00005714 C9.07540541,6.00005714 7.45626126,5.04891429 6.02945946,4.20891429 C4.78774775,3.47834286 3.71504505,2.84691429 1.47315315,2.84691429 C0.662162162,2.84691429 0,2.24834286 0,1.51034286 C0,0.773771429 0.662162162,0.1752 1.47315315,0.1752 C4.58878378,0.1752 6.20824324,1.12634286 7.63504505,1.96634286 C8.87675676,2.69834286 9.94945946,3.32834286 12.191036,3.32834286 C14.4291441,3.32834286 15.5021622,2.69834286 16.7400901,1.96948571 C18.1703604,1.12634286 19.7895045,0.1752 22.9051351,0.1752 C26.0207658,0.1752 27.6399099,1.12634286 29.067027,1.96634286 C30.3052703,2.69691429 31.3745045,3.32834286 33.6195495,3.32834286 C35.8576577,3.32834286 36.9306757,2.69834286 38.1686036,1.96777143 C39.5988739,1.12634286 41.218018,0.1752 44.3336486,0.1752 C47.4492793,0.1752 49.0684234,1.12634286 50.4955405,1.96634286 C51.7372523,2.69691429 52.809955,3.32834286 55.0546847,3.32834286 C57.2931081,3.32834286 58.3654955,2.69834286 59.6040541,1.96948571 C61.0343243,1.12634286 62.6534685,0.1752 65.7687838,0.1752 C66.8717568,0.1752 67.8482883,0.290914286 68.751982,0.532342857 C69.1325676,0.6312 69.4440991,0.8592 69.6326577,1.17262857 C69.8215315,1.48634286 69.8647297,1.84634286 69.7553153,2.18977143 C69.5733784,2.75548571 68.9903604,3.15148571 68.3382883,3.15148571 C68.1992342,3.15148571 68.0601802,3.13348571 67.9277477,3.0972 C67.2886036,2.9292 66.5835586,2.84691429 65.7687838,2.84691429 C63.5240541,2.84691429 62.4548198,3.47834286 61.2162613,4.20891429 C59.7828378,5.05034286 58.1633784,6.00005714 55.0546847,6.00005714" id="Fill-14" fill="#002091" mask="url(#mask-4)"></path>
                    </g>
                </g>
            </g>
        </g>
    </g>
</svg>