<?xml version="1.0" encoding="UTF-8"?>
<svg width="64px" height="80px" viewBox="0 0 64 80" version="1.1" xmlns="http://www.w3.org/2000/svg" xmlns:xlink="http://www.w3.org/1999/xlink">
    <!-- Generator: Sketch 64 (93537) - https://sketch.com -->
    <title>Family Medical Insurance</title>
    <desc>Created with Sketch.</desc>
    <defs>
        <polygon id="path-1" points="3.1840796e-05 0.0229959514 63.7408159 0.0229959514 63.7408159 80 3.1840796e-05 80"></polygon>
    </defs>
    <g id="Desktop" stroke="none" stroke-width="1" fill="none" fill-rule="evenodd">
        <g id="Personal-Insurance" transform="translate(-1169.000000, -1364.000000)">
            <g id="Group-20" transform="translate(120.000000, 1364.000000)">
                <g id="Family-Medical-Insurance" transform="translate(1049.000000, 0.000000)">
                    <path d="M25.8156551,39.6548584 C26.6588948,39.6548584 27.3441497,40.3400845 27.3441497,41.1849243 L27.3441497,52.1151814 L35.8328064,51.9398682 L35.6574858,41.1849243 C35.6574858,40.3400845 36.3443761,39.6548584 37.1859804,39.6548584 L48.1183313,39.6548584 L47.9430107,31.168193 L37.1859804,31.3435063 C36.3443761,31.3435063 35.6574858,30.6582801 35.6574858,29.8150757 L35.6574858,18.8831832 L27.1688291,19.0581694 L27.3441497,29.8150757 C27.3441497,30.6582801 26.6588948,31.3435063 25.8156551,31.3435063 L15.0582976,31.3435063 L15.0582976,39.8301716 L25.8156551,39.6548584 Z M25.8156551,55 C24.9707799,55 24.285525,54.3147738 24.285525,53.4699341 L24.285525,42.5380416 L13.5284946,42.7133548 C12.6849278,42.7133548 12,42.0281286 12,41.1849243 L12,29.8150757 C12,28.970236 12.6849278,28.2850098 13.5284946,28.2850098 L24.4605185,28.2850098 L24.285525,17.5284305 C24.285525,16.6852262 24.9707799,16 25.8156551,16 L37.1859804,16 C38.0272576,16 38.714475,16.6852262 38.714475,17.5284305 L38.714475,28.459996 L49.4715054,28.2850098 C50.3131096,28.2850098 51,28.970236 51,29.8150757 L51,41.1849243 C51,42.0281286 50.3131096,42.7133548 49.4715054,42.7133548 L38.5391544,42.7133548 L38.714475,53.4699341 C38.714475,54.3147738 38.0272576,55 37.1859804,55 L25.8156551,55 Z" id="Fill-1" fill="#002091"></path>
                    <g id="Group-5">
                        <mask id="mask-2" fill="white">
                            <use xlink:href="#path-1"></use>
                        </mask>
                        <g id="Clip-4"></g>
                        <path d="M14.2379622,3.0514332 C13.4992557,8.55750607 8.72313632,12.9484372 2.82335522,13.5213927 L2.97746468,30.7573441 C2.97746468,47.2282753 11.5531463,62.8813927 25.9184398,72.6268178 L31.965007,76.7285182 L37.8224398,72.6268178 C52.1861413,62.8813927 60.7618229,47.2298947 60.7618229,30.7573441 L60.7618229,13.3481134 C54.9642507,12.9432551 50.1531065,8.47621053 49.4812657,2.8985587 L14.2379622,3.0514332 Z M31.871395,80.0000972 C31.5736836,80.0000972 31.2861612,79.9116761 31.0419423,79.7448745 L24.2665393,75.1469798 C9.0705194,64.8402591 3.1840796e-05,48.2452794 3.1840796e-05,30.7573441 L3.1840796e-05,12.0710283 C3.1840796e-05,11.2360486 0.667096517,10.5575061 1.48954428,10.5575061 C6.93272836,10.5575061 11.3627383,6.51021862 11.3627383,1.5362915 C11.3627383,0.701635628 12.0294846,0.0227692308 12.8506587,0.0227692308 L50.8886289,0.0227692308 C51.7078925,0.0227692308 52.3765493,0.701635628 52.3765493,1.5362915 C52.3765493,6.51021862 56.8065592,10.5575061 62.2529274,10.5575061 C63.072191,10.5575061 63.7408478,11.2360486 63.7408478,12.0710283 L63.7408478,30.7573441 C63.7408478,48.2436599 54.6700418,64.8386397 39.4743403,75.1469798 L32.6938428,79.7448745 C32.4531264,79.9116761 32.165604,80.0000972 31.871395,80.0000972 L31.871395,80.0000972 Z" id="Fill-3" fill="#002091" mask="url(#mask-2)"></path>
                    </g>
                </g>
            </g>
        </g>
    </g>
</svg>