<?xml version="1.0" encoding="UTF-8"?>
<svg width="85px" height="74px" viewBox="0 0 85 74" version="1.1" xmlns="http://www.w3.org/2000/svg" xmlns:xlink="http://www.w3.org/1999/xlink">
    <!-- Generator: Sketch 64 (93537) - https://sketch.com -->
    <title>Life Insurance</title>
    <desc>Created with Sketch.</desc>
    <defs>
        <polygon id="path-1" points="0 0.105647431 80.9811172 0.105647431 80.9811172 73.7075099 0 73.7075099"></polygon>
        <polygon id="path-3" points="0.239658904 0.187161017 83.8553014 0.187161017 83.8553014 34.8677119 0.239658904 34.8677119"></polygon>
    </defs>
    <g id="Desktop" stroke="none" stroke-width="1" fill="none" fill-rule="evenodd">
        <g id="Personal-Insurance" transform="translate(-843.000000, -1367.000000)">
            <g id="Group-20" transform="translate(120.000000, 1364.000000)">
                <g id="Life-Insurance" transform="translate(723.000000, 3.000000)">
                    <g id="Group-3">
                        <mask id="mask-2" fill="white">
                            <use xlink:href="#path-1"></use>
                        </mask>
                        <g id="Clip-2"></g>
                        <path d="M19.9750596,2.84072253 C19.5378894,2.84072253 19.1033043,2.85593202 18.6658468,2.88664348 C11.4272617,3.38738656 5.93505957,8.03271462 3.59754894,15.6295605 C-3.52355745,38.7593866 33.1522085,65.6023747 40.5780702,70.7481534 C47.8287191,65.6023747 84.5041979,38.7579241 77.3833787,15.6295605 C75.0458681,8.02949723 69.5533787,3.38592411 62.3147936,2.88664348 C61.8776234,2.85593202 61.440166,2.84218498 61.0029957,2.84218498 C52.962166,2.84218498 45.0267511,7.86979763 41.7057511,15.0691494 C41.4857298,15.5464933 41.0092085,15.8536079 40.4904638,15.8536079 C39.9717191,15.8536079 39.4951979,15.5464933 39.2748894,15.0691494 C35.9541766,7.86979763 28.0190489,2.84072253 19.9750596,2.84072253 M40.4904638,73.7075684 C40.2250596,73.7075684 39.9656872,73.6277186 39.739634,73.4741613 C31.8191553,68.051687 -6.75063191,40.0998688 1.03082553,14.8094182 C3.72134681,6.07946561 10.0824319,0.738596047 18.4880489,0.156248221 C18.9737617,0.122611858 19.4623468,0.105647431 19.9509319,0.105647431 C28.0971766,0.105647431 36.4065702,4.82760791 40.623166,11.8564379 C44.5772298,4.82760791 52.8805915,0.105647431 61.0239638,0.105647431 C61.5157085,0.105647431 62.0042936,0.122611858 62.4928787,0.156248221 C70.898783,0.736841107 77.2598681,6.07771067 79.9501021,14.8094182 C87.7315596,40.0998688 49.1646447,68.0502245 41.3559,73.3972364 C41.0212723,73.6277186 40.7587404,73.7075684 40.4904638,73.7075684" id="Fill-1" fill="#002091" mask="url(#mask-2)"></path>
                    </g>
                    <g id="Group-6" transform="translate(1.000000, 17.000000)">
                        <mask id="mask-4" fill="white">
                            <use xlink:href="#path-3"></use>
                        </mask>
                        <g id="Clip-5"></g>
                        <path d="M40.378426,34.8677119 C39.8620562,34.8677119 39.3848096,34.5562712 39.1641658,34.0733898 L32.1772068,18.8107203 L29.3922616,26.8212712 C29.1868644,27.3536864 28.6946589,27.6980508 28.1385904,27.6980508 L1.58682329,27.6980508 C0.843768493,27.6980508 0.239658904,27.0766525 0.239658904,26.3119915 C0.239658904,25.5458475 0.843768493,24.9244492 1.58682329,24.9244492 L27.3290836,24.9244492 L30.966111,15.1431356 C31.1654671,14.6279237 31.6395493,14.2838559 32.1743301,14.2663559 L32.1772068,14.2663559 C32.751111,14.2663559 33.2073575,14.5638559 33.4337548,15.060678 L40.2124397,29.8641949 L47.4137137,1.2134322 C47.5676178,0.609237288 48.1023986,0.187161017 48.7125493,0.187161017 C49.3529055,0.196652542 49.8816452,0.637415254 50.0234671,1.25851695 L55.0922342,23.6647458 L56.4667274,19.1672458 C56.6629192,18.6345339 57.1674945,18.2780085 57.7232753,18.2780085 L82.5110425,18.2780085 C83.2509329,18.2780085 83.8553301,18.8994068 83.8553301,19.6655508 C83.8553301,20.4302119 83.2509329,21.0516102 82.5110425,21.0516102 L58.5419877,21.0516102 L55.9198644,28.3692797 C55.7147548,28.9097034 55.2222616,29.2585169 54.6633164,29.2585169 C53.9775082,29.2134322 53.4881795,28.7833475 53.3523986,28.1853814 L48.4769466,6.65 L41.6775493,33.8414407 C41.532563,34.3990678 41.0610699,34.8101695 40.5024123,34.8629661 L40.378426,34.8677119 Z" id="Fill-4" fill="#002091" mask="url(#mask-4)"></path>
                    </g>
                </g>
            </g>
        </g>
    </g>
</svg>