<?xml version="1.0" encoding="UTF-8"?>
<svg width="108px" height="56px" viewBox="0 0 108 56" version="1.1" xmlns="http://www.w3.org/2000/svg" xmlns:xlink="http://www.w3.org/1999/xlink">
    <!-- Generator: Sketch 64 (93537) - https://sketch.com -->
    <title>Recreational Vehicle Insurance</title>
    <desc>Created with Sketch.</desc>
    <defs>
        <polygon id="path-1" points="0 0.265702128 33.7419617 0.265702128 33.7419617 35 0 35"></polygon>
        <polygon id="path-3" points="0.0553042553 0.265702128 33.7974106 0.265702128 33.7974106 35 0.0553042553 35"></polygon>
        <polygon id="path-5" points="0.289398596 0.10117027 105.633649 0.10117027 105.633649 40.6435216 0.289398596 40.6435216"></polygon>
    </defs>
    <g id="Desktop" stroke="none" stroke-width="1" fill="none" fill-rule="evenodd">
        <g id="Personal-Insurance" transform="translate(-207.000000, -1376.000000)">
            <g id="Group-20" transform="translate(120.000000, 1364.000000)">
                <g id="Recreational-Vehicle-Insurance" transform="translate(87.000000, 12.000000)">
                    <g id="Group-3" transform="translate(0.000000, 21.000000)">
                        <mask id="mask-2" fill="white">
                            <use xlink:href="#path-1"></use>
                        </mask>
                        <g id="Clip-2"></g>
                        <path d="M16.8707277,3.74745745 C9.43413191,3.74745745 3.38394043,9.97745745 3.38394043,17.6327766 C3.38394043,25.2884681 9.43413191,31.5184681 16.8707277,31.5184681 C24.3076851,31.5184681 30.3614936,25.2884681 30.3614936,17.6327766 C30.3614936,9.97745745 24.3076851,3.74745745 16.8707277,3.74745745 M16.8707277,35.0002234 C7.56955745,35.0002234 -0.000144680851,27.210117 -0.000144680851,17.6327766 C-0.000144680851,8.05580851 7.56955745,0.265702128 16.8707277,0.265702128 C26.1722596,0.265702128 33.7419617,8.05580851 33.7419617,17.6327766 C33.7419617,27.210117 26.1722596,35.0002234 16.8707277,35.0002234" id="Fill-1" fill="#002091" mask="url(#mask-2)"></path>
                    </g>
                    <g id="Group-6" transform="translate(70.000000, 21.000000)">
                        <mask id="mask-4" fill="white">
                            <use xlink:href="#path-3"></use>
                        </mask>
                        <g id="Clip-5"></g>
                        <path d="M16.9261766,3.74745745 C9.48958085,3.74745745 3.43577234,9.97745745 3.43577234,17.6327766 C3.43577234,25.2884681 9.48958085,31.5184681 16.9261766,31.5184681 C24.363134,31.5184681 30.4129638,25.2884681 30.4129638,17.6327766 C30.4129638,9.97745745 24.363134,3.74745745 16.9261766,3.74745745 M16.9261766,35.0002234 C7.62464468,35.0002234 0.0553042553,27.210117 0.0553042553,17.6327766 C0.0553042553,8.05580851 7.62464468,0.265702128 16.9261766,0.265702128 C26.2277085,0.265702128 33.7974106,8.05580851 33.7974106,17.6327766 C33.7974106,27.210117 26.2277085,35.0002234 16.9261766,35.0002234" id="Fill-4" fill="#002091" mask="url(#mask-4)"></path>
                    </g>
                    <g id="Group-9" transform="translate(2.000000, 0.000000)">
                        <mask id="mask-6" fill="white">
                            <use xlink:href="#path-5"></use>
                        </mask>
                        <g id="Clip-8"></g>
                        <path d="M3.76545474,9.57623333 C12.1152793,9.87505315 39.4219951,12.5629541 40.503567,37.3794045 L60.1950196,37.1895486 C60.7105144,23.8859721 70.7634056,14.2576207 84.4400091,13.9588009 L79.8823811,8.00161171 C79.5111951,7.47230541 79.4643319,6.78749459 79.7611319,6.21349459 C80.0657425,5.63949459 80.6556232,5.28453063 81.3076161,5.28453063 L82.4832863,5.28453063 C82.9634477,5.28453063 83.3580653,4.89669279 83.3580653,4.41983694 C83.3580653,3.94261171 82.9634477,3.55477387 82.4832863,3.55477387 L72.0246196,3.55477387 L62.2648091,13.330873 C61.9408582,13.6525937 61.491567,13.836909 61.0348372,13.836909 L36.3952302,13.836909 C36.1612863,13.836909 35.9269705,13.7903685 35.7157144,13.6991342 C29.1236302,10.9163054 22.144367,9.50457568 14.9776512,9.50457568 L3.83946877,9.50457568 L3.83946877,9.30696306 L3.76545474,9.57623333 Z M38.797153,40.6435216 C37.8401775,40.6435216 37.0594968,39.8696928 37.0594968,38.9156117 C37.0594968,16.450936 13.712346,13.3774135 3.67544772,13.0959541 C1.77748982,13.043873 0.289398596,11.5213324 0.289398596,9.63053063 C0.289398596,7.65662072 1.88274596,6.0506027 3.83946877,6.0506027 L14.9776512,6.0506027 C22.5114618,6.0506027 29.8459179,7.51293604 36.7857565,10.3988189 L60.3984653,10.3833054 L70.1579039,0.605359459 C70.485946,0.279206306 70.9233354,0.10117027 71.3878758,0.10117027 L82.4832863,0.10117027 C84.8814898,0.10117027 86.8341214,2.03851261 86.8341214,4.41983694 C86.8341214,6.18431441 85.7681705,7.75708919 84.1197775,8.42453964 L88.1384793,13.7227739 C88.251546,13.8875126 88.3378337,14.0696117 88.3921354,14.2631613 C95.141174,14.8881342 101.042213,18.2855937 105.28742,23.9480261 C105.564507,24.3185036 105.682037,24.7743054 105.615462,25.2323234 C105.544795,25.6877559 105.303041,26.0911072 104.931855,26.3666568 C104.627244,26.5912333 104.26796,26.7098009 103.893055,26.7098009 C103.338507,26.7098009 102.827104,26.4556748 102.494971,26.0116928 C98.2107109,20.3005036 92.3561635,17.4050171 85.0960933,17.4050171 C72.5482968,17.4050171 63.43676,26.4519811 63.43676,38.9156117 C63.43676,39.8696928 62.6557074,40.6435216 61.6946407,40.6435216 L38.797153,40.6435216 Z" id="Fill-7" fill="#002091" mask="url(#mask-6)"></path>
                    </g>
                    <path d="M87.2566976,41 C86.6856264,41 86.1495718,40.7197716 85.825108,40.2492416 L72.3104992,20.7410892 C71.7628966,19.9515242 71.958469,18.8604617 72.7485813,18.3115722 C73.0421261,18.1078376 73.3822358,18 73.7383637,18 C74.3131602,18 74.8488422,18.2824673 75.1736786,18.7526242 L88.6886598,38.2611496 C88.9546382,38.6432453 89.0559633,39.107432 88.970284,39.5656484 C88.8879574,40.0242379 88.633527,40.4238713 88.2502052,40.6884278 C87.9529352,40.8921624 87.6128256,41 87.2566976,41" id="Fill-10" fill="#002091"></path>
                    <path d="M17.6827169,41 C17.0670039,41 16.5041897,40.6625748 16.2091081,40.117615 C15.9107878,39.5766463 15.9334587,38.9141319 16.2656054,38.3902159 L29.3136108,17.7847856 C29.6234465,17.2931608 30.1524343,17 30.7307223,17 C31.0517135,17 31.3651477,17.0914313 31.6339599,17.2666747 C32.4155663,17.7695471 32.6462338,18.8210074 32.1474739,19.6097841 L20.5662401,37.9062103 L41.3147961,37.6068815 C42.2443032,37.6068815 43,38.367358 43,39.3023523 C43,40.2395235 42.2443032,41 41.3147961,41 L17.6827169,41 Z" id="Fill-12" fill="#002091"></path>
                </g>
            </g>
        </g>
    </g>
</svg>