<?xml version="1.0" encoding="UTF-8"?>
<svg width="96px" height="15px" viewBox="0 0 96 15" version="1.1" xmlns="http://www.w3.org/2000/svg" xmlns:xlink="http://www.w3.org/1999/xlink">
    <!-- Generator: Sketch 64 (93537) - https://sketch.com -->
    <title>Group</title>
    <desc>Created with Sketch.</desc>
    <g id="Desktop" stroke="none" stroke-width="1" fill="none" fill-rule="evenodd">
        <g id="Testimonials" transform="translate(-200.000000, -643.000000)" fill="#002091">
            <g id="Group-7" transform="translate(120.000000, 579.000000)">
                <g id="Group" transform="translate(80.000000, 64.000000)">
                    <polygon id="Star" points="8 12 3.29771798 14.472136 4.19577393 9.23606798 0.39154787 5.52786405 5.64885899 4.76393202 8 0 10.351141 4.76393202 15.6084521 5.52786405 11.8042261 9.23606798 12.702282 14.472136"></polygon>
                    <polygon id="Star" points="28 12 23.297718 14.472136 24.1957739 9.23606798 20.3915479 5.52786405 25.648859 4.76393202 28 0 30.351141 4.76393202 35.6084521 5.52786405 31.8042261 9.23606798 32.702282 14.472136"></polygon>
                    <polygon id="Star" points="48 12 43.297718 14.472136 44.1957739 9.23606798 40.3915479 5.52786405 45.648859 4.76393202 48 0 50.351141 4.76393202 55.6084521 5.52786405 51.8042261 9.23606798 52.702282 14.472136"></polygon>
                    <polygon id="Star" points="68 12 63.297718 14.472136 64.1957739 9.23606798 60.3915479 5.52786405 65.648859 4.76393202 68 0 70.351141 4.76393202 75.6084521 5.52786405 71.8042261 9.23606798 72.702282 14.472136"></polygon>
                    <polygon id="Star" points="88 12 83.297718 14.472136 84.1957739 9.23606798 80.3915479 5.52786405 85.648859 4.76393202 88 0 90.351141 4.76393202 95.6084521 5.52786405 91.8042261 9.23606798 92.702282 14.472136"></polygon>
                </g>
            </g>
        </g>
    </g>
</svg>